<?xml version="1.0" encoding="UTF-8" standalone="no"?>
<!-- Uploaded to: SVG Repo, www.svgrepo.com, Generator: SVG Repo Mixer Tools -->

<svg
   width="800px"
   height="800px"
   viewBox="0 0 24 24"
   fill="none"
   version="1.1"
   id="svg4"
   sodipodi:docname="form-svgrepo-com.svg"
   xml:space="preserve"
   inkscape:version="1.4.4 (dcaf3e7d9e, 2026-05-05)"
   xmlns:inkscape="http://www.inkscape.org/namespaces/inkscape"
   xmlns:sodipodi="http://sodipodi.sourceforge.net/DTD/sodipodi-0.dtd"
   xmlns="http://www.w3.org/2000/svg"
   xmlns:svg="http://www.w3.org/2000/svg"><defs
     id="defs4" /><sodipodi:namedview
     id="namedview4"
     pagecolor="#ffffff"
     bordercolor="#000000"
     borderopacity="0.25"
     inkscape:showpageshadow="2"
     inkscape:pageopacity="0.0"
     inkscape:pagecheckerboard="0"
     inkscape:deskcolor="#d1d1d1"
     inkscape:zoom="1.00375"
     inkscape:cx="399.50187"
     inkscape:cy="400"
     inkscape:window-width="1920"
     inkscape:window-height="1011"
     inkscape:window-x="0"
     inkscape:window-y="0"
     inkscape:window-maximized="1"
     inkscape:current-layer="svg4" /><path
     d="M4 7C4 5.11438 4 4.17157 4.58579 3.58579C5.17157 3 6.11438 3 8 3H16C17.8856 3 18.8284 3 19.4142 3.58579C20 4.17157 20 5.11438 20 7V15C20 17.8284 20 19.2426 19.1213 20.1213C18.2426 21 16.8284 21 14 21H10C7.17157 21 5.75736 21 4.87868 20.1213C4 19.2426 4 17.8284 4 15V7Z"
     stroke="#33363F"
     stroke-width="2"
     id="path1"
     style="stroke:#7c3aed;stroke-opacity:1" /><path
     d="m 9.1191034,6.7260274 v -3 m 5.9999996,3 v -3"
     stroke="#33363F"
     stroke-width="2"
     stroke-linecap="round"
     id="path2"
     style="stroke:#7c3aed;stroke-opacity:1" /><path
     d="M 15.119103,16.726027 H 9.1191034"
     stroke="#33363F"
     stroke-width="2"
     stroke-linecap="round"
     id="path3"
     style="stroke:#7c3aed;stroke-opacity:1" /><path
     d="M 15.119103,12.726027 H 9.1191034"
     stroke="#33363F"
     stroke-width="2"
     stroke-linecap="round"
     id="path4"
     style="stroke:#7c3aed;stroke-opacity:1" /></svg>
